<svg width="126" height="32" viewBox="0 0 126 32" fill="none" xmlns="http://www.w3.org/2000/svg">
<path d="M81.5758 22.5319V7.80474H78.5558V10.2522L78.0423 9.60436C77.0104 8.35331 75.7158 7.65332 73.9393 7.65332C70.0504 7.65332 66.8843 10.915 66.8843 15.0554C66.8843 19.1958 69.8265 22.5319 73.5815 22.5319C75.7231 22.5319 77.3803 21.2908 78.1567 20.139L78.5533 19.5482V22.5344H81.5734L81.5758 22.5319ZM74.2994 19.5507C71.8537 19.5507 69.9409 17.6319 69.9409 15.0554C69.9409 12.4788 71.8561 10.5302 74.2994 10.5302C76.7427 10.5302 78.5217 12.5483 78.5217 15.0554C78.5217 17.5624 76.7281 19.5507 74.2994 19.5507Z" fill="#00D094"/>
<path d="M50.5623 19.0816C48.9343 19.6202 47.6055 19.6004 46.8097 19.0319C46.323 18.6819 46.0529 18.1383 46.0529 17.5004V10.9324H50.2557L50.2752 7.78736H46.0529V3.53528L42.9209 4.45867V17.5302C42.9209 19.2876 43.5098 20.6702 44.622 21.5315C46.0164 22.6039 48.1166 22.8248 50.5623 22.1546V19.0816Z" fill="#00D094"/>
<path d="M15.2171 3.42859H0V6.58352H6.08393V22.5146H9.35465V6.58352H15.2171V3.42859Z" fill="#00D094"/>
<path d="M40.8938 18.255C40.8938 16.0706 39.4507 14.6781 36.3552 13.8738C35.9512 13.7721 35.5667 13.6877 35.1432 13.5958C33.5054 13.2409 32.2108 12.9604 32.2108 11.8533C32.2108 10.8753 33.2426 10.2175 34.7782 10.2175C36.3138 10.2175 38.0733 10.7785 40.2026 11.8831V8.90934C38.689 8.03311 36.7153 7.53418 34.7782 7.53418C31.2325 7.53418 28.9401 9.23948 28.9401 11.8806C28.9401 14.0947 30.3807 15.3061 33.9119 16.0632C36.2822 16.5671 37.6523 17.0784 37.6523 18.1979C37.6523 19.3174 36.3771 19.7766 35.1116 19.7766C33.1526 19.7766 30.7871 18.7068 29.3562 17.6841V20.8092C31.2203 21.9436 33.155 22.517 35.1116 22.517C37.9078 22.517 40.8962 21.3975 40.8962 18.255H40.8938Z" fill="#00D094"/>
<path d="M63.1609 7.80481L59.1991 21.0575L55.208 7.80481H51.8546L56.6487 22.5146H61.7203L66.546 7.80481H63.1609Z" fill="#00D094"/>
<path d="M87.521 3.42859H84.3622V22.5319H87.521V3.42859Z" fill="#00D094"/>
<path d="M93.5174 3.42859H90.3586V22.5319H93.5174V3.42859Z" fill="#00D094"/>
<path d="M121.654 7.80481L117.714 18.8136L113.546 7.80481H110.243L116.123 22.5245L116.089 22.6114L113.925 28.3429H117.128L124.935 7.80481H121.654Z" fill="#00D094"/>
<path d="M24.0534 17.6792C23.3574 18.538 22.3718 19.2306 21.2913 19.5483C19.2033 20.154 17.3173 19.4093 16.3706 17.5849L16.2417 17.3416L16.502 17.2671L27.2803 14.0923C27.2146 13.2881 26.9664 12.4938 26.5235 11.6573C25.2629 9.12538 22.7563 7.55164 19.9845 7.55164C19.3031 7.55164 18.629 7.64844 17.9792 7.83958C14.0952 8.98637 11.8491 13.1516 12.9758 17.1257C14.0952 21.0799 18.1569 23.371 22.0555 22.2366C24.068 21.6433 26.3142 19.9256 27.1757 17.6767H24.0559L24.0534 17.6792ZM15.6746 14.9363C15.5213 13.2211 16.2173 11.1261 18.6193 10.3963C21.7488 9.46793 23.1846 11.6176 23.6616 12.5906L23.6835 12.6353L15.6819 14.9909L15.6771 14.9388L15.6746 14.9363Z" fill="#00D094"/>
<path d="M106.97 17.6792C106.274 18.538 105.289 19.2306 104.208 19.5483C102.12 20.154 100.234 19.4093 99.2873 17.5849L99.1584 17.3416L99.4188 17.2671L110.197 14.0923C110.131 13.2881 109.883 12.4938 109.44 11.6573C108.18 9.12538 105.673 7.55164 102.901 7.55164C102.22 7.55164 101.546 7.64844 100.896 7.83958C97.012 8.98637 94.7658 13.1516 95.8925 17.1257C97.012 21.0799 101.074 23.371 104.972 22.2366C106.985 21.6433 109.231 19.9256 110.092 17.6767H106.973L106.97 17.6792ZM98.5913 14.9363C98.438 13.2211 99.134 11.1261 101.536 10.3963C104.666 9.46793 106.101 11.6176 106.578 12.5906L106.6 12.6353L98.5986 14.9909L98.5938 14.9388L98.5913 14.9363Z" fill="#00D094"/>
</svg>
