<svg width="10" height="10" viewBox="0 0 10 10" fill="none" xmlns="http://www.w3.org/2000/svg">
<path fill-rule="evenodd" clip-rule="evenodd" d="M5.51758 5.8005C6.86529 5.06262 7.85506 3.84331 8.48691 2.14258C9.38558 3.07652 9.52518 4.05833 8.9057 5.08803C8.28623 6.11772 7.15685 6.35521 5.51758 5.8005Z" fill="#B3E4DC"/>
<path d="M0.758032 4.01976L2.39715 8.01003L2.51732 8.154C2.67454 8.26256 2.88629 8.21966 2.99028 8.05818L3.57949 7.10477C6.45332 7.60582 9.25924 5.85012 9.28627 3.81066C7.68582 4.88134 6.3503 5.35081 4.91925 4.9369L5.55977 3.90045C5.60045 3.83729 5.62012 3.76209 5.61584 3.68608C5.60491 3.49175 5.44349 3.34219 5.25531 3.35202L1.0467 3.51949C0.677455 3.51961 0.677353 3.84328 0.758032 4.01976Z" fill="white"/>
</svg>
