<svg width="12" height="12" viewBox="0 0 12 12" fill="none" xmlns="http://www.w3.org/2000/svg">
<path d="M5.68667 2.0749C5.81 1.80837 6.19 1.80837 6.31333 2.0749L7.21713 4.02824C7.26739 4.13687 7.37066 4.21167 7.48983 4.22575L9.63266 4.47903C9.92505 4.51359 10.0425 4.87386 9.8263 5.07315L8.24206 6.53366C8.15395 6.61488 8.11451 6.7359 8.13789 6.85324L8.55843 8.96311C8.61582 9.251 8.30839 9.47367 8.05146 9.3303L6.16854 8.2796C6.06382 8.22117 5.93618 8.22117 5.83146 8.2796L3.94854 9.3303C3.69161 9.47367 3.38419 9.251 3.44157 8.96311L3.86211 6.85324C3.88549 6.7359 3.84605 6.61488 3.75794 6.53366L2.1737 5.07315C1.95752 4.87386 2.07495 4.51359 2.36735 4.47903L4.51017 4.22575C4.62934 4.21167 4.73261 4.13687 4.78287 4.02824L5.68667 2.0749Z" fill="#666666"/>
</svg>
